<svg width="21" height="23" viewBox="0 0 21 23" fill="none" xmlns="http://www.w3.org/2000/svg">
<path d="M17.7083 2.28175H15.625V1.14087C15.625 0.838295 15.5153 0.548109 15.3199 0.334154C15.1246 0.120199 14.8596 0 14.5833 0C14.3071 0 14.0421 0.120199 13.8468 0.334154C13.6514 0.548109 13.5417 0.838295 13.5417 1.14087V2.28175H7.29167V1.14087C7.29167 0.838295 7.18192 0.548109 6.98657 0.334154C6.79122 0.120199 6.52627 0 6.25 0C5.97373 0 5.70878 0.120199 5.51343 0.334154C5.31808 0.548109 5.20833 0.838295 5.20833 1.14087V2.28175H3.125C2.2962 2.28175 1.50134 2.64234 0.915291 3.28421C0.32924 3.92607 0 4.79663 0 5.70437V19.3948C0 20.3026 0.32924 21.1731 0.915291 21.815C1.50134 22.4569 2.2962 22.8175 3.125 22.8175H17.7083C18.5371 22.8175 19.332 22.4569 19.918 21.815C20.5041 21.1731 20.8333 20.3026 20.8333 19.3948V5.70437C20.8333 4.79663 20.5041 3.92607 19.918 3.28421C19.332 2.64234 18.5371 2.28175 17.7083 2.28175ZM18.75 19.3948C18.75 19.6974 18.6403 19.9876 18.4449 20.2016C18.2496 20.4155 17.9846 20.5357 17.7083 20.5357H3.125C2.84873 20.5357 2.58378 20.4155 2.38843 20.2016C2.19308 19.9876 2.08333 19.6974 2.08333 19.3948V11.4087H18.75V19.3948ZM18.75 9.12698H2.08333V5.70437C2.08333 5.40179 2.19308 5.1116 2.38843 4.89765C2.58378 4.68369 2.84873 4.56349 3.125 4.56349H5.20833V5.70437C5.20833 6.00694 5.31808 6.29713 5.51343 6.51108C5.70878 6.72504 5.97373 6.84524 6.25 6.84524C6.52627 6.84524 6.79122 6.72504 6.98657 6.51108C7.18192 6.29713 7.29167 6.00694 7.29167 5.70437V4.56349H13.5417V5.70437C13.5417 6.00694 13.6514 6.29713 13.8468 6.51108C14.0421 6.72504 14.3071 6.84524 14.5833 6.84524C14.8596 6.84524 15.1246 6.72504 15.3199 6.51108C15.5153 6.29713 15.625 6.00694 15.625 5.70437V4.56349H17.7083C17.9846 4.56349 18.2496 4.68369 18.4449 4.89765C18.6403 5.1116 18.75 5.40179 18.75 5.70437V9.12698Z" fill="#95D041"/>
</svg>
